<svg width="16" height="10" viewBox="0 0 16 10" fill="none" xmlns="http://www.w3.org/2000/svg">
<path fill-rule="evenodd" clip-rule="evenodd" d="M10.1836 0.209802C10.2417 0.143298 10.3106 0.0905335 10.3865 0.0545322C10.4625 0.0185308 10.5439 0 10.6261 0C10.7083 0 10.7897 0.0185308 10.8656 0.0545322C10.9415 0.0905335 11.0105 0.143298 11.0685 0.209802L14.8183 4.49458C14.8765 4.56092 14.9226 4.63972 14.9541 4.72648C14.9856 4.81324 15.0019 4.90625 15.0019 5.00019C15.0019 5.09412 14.9856 5.18713 14.9541 5.27389C14.9226 5.36065 14.8765 5.43946 14.8183 5.50579L11.0685 9.79057C10.9512 9.92467 10.792 10 10.6261 10C10.4601 10 10.301 9.92467 10.1836 9.79057C10.0663 9.65648 10.0003 9.47461 10.0003 9.28497C10.0003 9.09533 10.0663 8.91346 10.1836 8.77936L13.4921 5.00019L10.1836 1.22101C10.1254 1.15467 10.0792 1.07587 10.0477 0.989109C10.0162 0.902349 10 0.809339 10 0.715406C10 0.621474 10.0162 0.528463 10.0477 0.441704C10.0792 0.354944 10.1254 0.276139 10.1836 0.209802Z" fill="white"/>
<path fill-rule="evenodd" clip-rule="evenodd" d="M0 5.00017C0 4.81077 0.0658432 4.62913 0.183045 4.49521C0.300246 4.36128 0.459205 4.28604 0.624953 4.28604H13.749C13.9147 4.28604 14.0737 4.36128 14.1909 4.49521C14.3081 4.62913 14.3739 4.81077 14.3739 5.00017C14.3739 5.18957 14.3081 5.37121 14.1909 5.50514C14.0737 5.63906 13.9147 5.7143 13.749 5.7143H0.624953C0.459205 5.7143 0.300246 5.63906 0.183045 5.50514C0.0658432 5.37121 0 5.18957 0 5.00017Z" fill="white"/>
</svg>
