<svg width="20" height="16" viewBox="0 0 20 16" fill="none" xmlns="http://www.w3.org/2000/svg">
<path fill-rule="evenodd" clip-rule="evenodd" d="M5.71429 14.4C5.71429 14.1878 5.78954 13.9843 5.9235 13.8343C6.05745 13.6843 6.23913 13.6 6.42857 13.6H19.2857C19.4752 13.6 19.6568 13.6843 19.7908 13.8343C19.9247 13.9843 20 14.1878 20 14.4C20 14.6122 19.9247 14.8157 19.7908 14.9657C19.6568 15.1157 19.4752 15.2 19.2857 15.2H6.42857C6.23913 15.2 6.05745 15.1157 5.9235 14.9657C5.78954 14.8157 5.71429 14.6122 5.71429 14.4ZM5.71429 8C5.71429 7.78783 5.78954 7.58434 5.9235 7.43431C6.05745 7.28429 6.23913 7.2 6.42857 7.2H19.2857C19.4752 7.2 19.6568 7.28429 19.7908 7.43431C19.9247 7.58434 20 7.78783 20 8C20 8.21217 19.9247 8.41566 19.7908 8.56569C19.6568 8.71571 19.4752 8.8 19.2857 8.8H6.42857C6.23913 8.8 6.05745 8.71571 5.9235 8.56569C5.78954 8.41566 5.71429 8.21217 5.71429 8ZM5.71429 1.6C5.71429 1.38783 5.78954 1.18434 5.9235 1.03431C6.05745 0.884286 6.23913 0.8 6.42857 0.8H19.2857C19.4752 0.8 19.6568 0.884286 19.7908 1.03431C19.9247 1.18434 20 1.38783 20 1.6C20 1.81217 19.9247 2.01566 19.7908 2.16569C19.6568 2.31571 19.4752 2.4 19.2857 2.4H6.42857C6.23913 2.4 6.05745 2.31571 5.9235 2.16569C5.78954 2.01566 5.71429 1.81217 5.71429 1.6ZM1.42857 3.2C1.80745 3.2 2.17081 3.03143 2.43872 2.73137C2.70663 2.43131 2.85714 2.02435 2.85714 1.6C2.85714 1.17565 2.70663 0.768687 2.43872 0.468629C2.17081 0.168571 1.80745 0 1.42857 0C1.04969 0 0.686328 0.168571 0.418419 0.468629C0.15051 0.768687 0 1.17565 0 1.6C0 2.02435 0.15051 2.43131 0.418419 2.73137C0.686328 3.03143 1.04969 3.2 1.42857 3.2ZM1.42857 9.6C1.80745 9.6 2.17081 9.43143 2.43872 9.13137C2.70663 8.83131 2.85714 8.42435 2.85714 8C2.85714 7.57565 2.70663 7.16869 2.43872 6.86863C2.17081 6.56857 1.80745 6.4 1.42857 6.4C1.04969 6.4 0.686328 6.56857 0.418419 6.86863C0.15051 7.16869 0 7.57565 0 8C0 8.42435 0.15051 8.83131 0.418419 9.13137C0.686328 9.43143 1.04969 9.6 1.42857 9.6ZM1.42857 16C1.80745 16 2.17081 15.8314 2.43872 15.5314C2.70663 15.2313 2.85714 14.8243 2.85714 14.4C2.85714 13.9757 2.70663 13.5687 2.43872 13.2686C2.17081 12.9686 1.80745 12.8 1.42857 12.8C1.04969 12.8 0.686328 12.9686 0.418419 13.2686C0.15051 13.5687 0 13.9757 0 14.4C0 14.8243 0.15051 15.2313 0.418419 15.5314C0.686328 15.8314 1.04969 16 1.42857 16Z" fill="#4673E4"/>
</svg>
