<svg width="16" height="16" viewBox="0 0 16 16" fill="none" xmlns="http://www.w3.org/2000/svg">
<path d="M6.54785 8.63313C6.8478 9.03395 7.23048 9.36561 7.66993 9.6056C8.10939 9.84559 8.59534 9.9883 9.09483 10.0241C9.59431 10.0598 10.0957 9.98778 10.5648 9.81283C11.034 9.63789 11.4601 9.36413 11.8141 9.01013L13.9094 6.91571C14.5456 6.25736 14.8976 5.37561 14.8896 4.46036C14.8817 3.54511 14.5144 2.6696 13.8669 2.0224C13.2194 1.3752 12.3435 1.00809 11.4279 1.00013C10.5122 0.992179 9.63009 1.34402 8.97145 1.97988L7.77013 3.17369" stroke="#777777" stroke-linecap="round" stroke-linejoin="round"/>
<path d="M9.34189 7.23688C9.04194 6.83606 8.65926 6.5044 8.21981 6.26441C7.78035 6.02442 7.2944 5.88171 6.79491 5.84595C6.29543 5.8102 5.79409 5.88223 5.32491 6.05718C4.85572 6.23212 4.42966 6.50588 4.07563 6.85988L1.98031 8.9543C1.34417 9.61265 0.992175 10.4944 1.00013 11.4097C1.00809 12.3249 1.37536 13.2004 2.02285 13.8476C2.67033 14.4948 3.54622 14.8619 4.46187 14.8699C5.37751 14.8778 6.25966 14.526 6.91829 13.8901L8.11263 12.6963" stroke="#777777" stroke-linecap="round" stroke-linejoin="round"/>
</svg>
