<svg width="20" height="20" viewBox="0 0 20 20" fill="none" xmlns="http://www.w3.org/2000/svg">
<path d="M18.5709 5.71428V18.5714H5.71373V5.71428H18.5709ZM18.5709 4.28571H5.71373C5.33485 4.28571 4.97148 4.43622 4.70358 4.70413C4.43567 4.97204 4.28516 5.3354 4.28516 5.71428V18.5714C4.28516 18.9503 4.43567 19.3137 4.70358 19.5816C4.97148 19.8495 5.33485 20 5.71373 20H18.5709C18.9498 20 19.3131 19.8495 19.581 19.5816C19.8489 19.3137 19.9994 18.9503 19.9994 18.5714V5.71428C19.9994 5.3354 19.8489 4.97204 19.581 4.70413C19.3131 4.43622 18.9498 4.28571 18.5709 4.28571Z" fill="#979BA9"/>
<path d="M1.42857 11.4286H0V1.42857C0 1.04969 0.15051 0.686328 0.418419 0.418419C0.686328 0.15051 1.04969 0 1.42857 0H11.4286V1.42857H1.42857V11.4286Z" fill="#979BA9"/>
</svg>
