<svg width="12" height="16" viewBox="0 0 12 16" fill="none" xmlns="http://www.w3.org/2000/svg">
<path fill-rule="evenodd" clip-rule="evenodd" d="M1.73057 1.10849C1.57757 1.10849 1.43085 1.16689 1.32267 1.27083C1.21449 1.37477 1.15371 1.51575 1.15371 1.66274V13.9293L5.76855 10.973L10.3834 13.9293V8.3137C10.3834 8.16671 10.4442 8.02573 10.5524 7.92179C10.6605 7.81785 10.8073 7.75946 10.9603 7.75946C11.1132 7.75946 11.26 7.81785 11.3682 7.92179C11.4763 8.02573 11.5371 8.16671 11.5371 8.3137V16L5.76855 12.3054L0 16V1.66274C0 1.22175 0.182327 0.79883 0.506871 0.487006C0.831415 0.175181 1.27159 0 1.73057 0H6.34541C6.4984 0 6.64513 0.0583937 6.75331 0.162335C6.86149 0.266277 6.92226 0.407251 6.92226 0.554247C6.92226 0.701242 6.86149 0.842217 6.75331 0.946159C6.64513 1.0501 6.4984 1.10849 6.34541 1.10849H1.73057Z" fill="#4673E4"/>
</svg>
