<svg width="20" height="20" viewBox="0 0 20 20" fill="none" xmlns="http://www.w3.org/2000/svg">
<path d="M10 0C8.02219 0 6.08879 0.58649 4.4443 1.6853C2.79981 2.78412 1.51809 4.3459 0.761209 6.17316C0.00433283 8.00043 -0.1937 10.0111 0.192152 11.9509C0.578004 13.8907 1.53041 15.6725 2.92894 17.0711C4.32746 18.4696 6.10929 19.422 8.0491 19.8078C9.98891 20.1937 11.9996 19.9957 13.8268 19.2388C15.6541 18.4819 17.2159 17.2002 18.3147 15.5557C19.4135 13.9112 20 11.9778 20 10C20 7.34783 18.9464 4.80429 17.0711 2.92893C15.1957 1.05357 12.6522 0 10 0ZM5.71429 17.4143V15.9857C5.68292 15.3825 5.89008 14.7912 6.29102 14.3395C6.69196 13.8878 7.25451 13.6119 7.85715 13.5714H12.1429C12.7468 13.6119 13.3105 13.8887 13.7116 14.342C14.1127 14.7953 14.319 15.3885 14.2857 15.9929V17.4214C12.9846 18.1794 11.5058 18.5787 10 18.5787C8.49423 18.5787 7.01539 18.1794 5.71429 17.4214V17.4143ZM15.7143 16.3714V15.9357C15.7338 14.9619 15.3707 14.0192 14.7029 13.3101C14.0352 12.601 13.1161 12.1819 12.1429 12.1429H7.85715C6.88328 12.1801 5.96308 12.5986 5.29497 13.3082C4.62686 14.0177 4.26439 14.9614 4.28572 15.9357V16.3571C2.99183 15.1999 2.07983 13.677 1.6704 11.99C1.26096 10.3031 1.37339 8.53156 1.99281 6.9099C2.61223 5.28824 3.70944 3.89288 5.13925 2.90846C6.56906 1.92403 8.26407 1.39695 10 1.39695C11.7359 1.39695 13.4309 1.92403 14.8608 2.90846C16.2906 3.89288 17.3878 5.28824 18.0072 6.9099C18.6266 8.53156 18.739 10.3031 18.3296 11.99C17.9202 13.677 17.0082 15.1999 15.7143 16.3571V16.3714Z" fill="black"/>
<path d="M9.99916 3.57143C9.2928 3.57143 8.6023 3.78089 8.01499 4.17332C7.42767 4.56576 6.96991 5.12354 6.69959 5.77613C6.42928 6.42872 6.35856 7.14682 6.49636 7.83961C6.63416 8.5324 6.97431 9.16876 7.47378 9.66824C7.97326 10.1677 8.60962 10.5079 9.30241 10.6457C9.9952 10.7835 10.7133 10.7127 11.3659 10.4424C12.0185 10.1721 12.5763 9.71435 12.9687 9.12704C13.3611 8.53972 13.5706 7.84922 13.5706 7.14286C13.5706 6.19565 13.1943 5.28725 12.5245 4.61748C11.8548 3.9477 10.9464 3.57143 9.99916 3.57143ZM9.99916 9.28571C9.57535 9.28571 9.16105 9.16004 8.80866 8.92458C8.45627 8.68912 8.18161 8.35445 8.01942 7.96289C7.85723 7.57134 7.8148 7.14048 7.89748 6.72481C7.98016 6.30913 8.18425 5.92731 8.48394 5.62763C8.78362 5.32794 9.16544 5.12386 9.58111 5.04117C9.99679 4.95849 10.4276 5.00093 10.8192 5.16311C11.2108 5.3253 11.5454 5.59996 11.7809 5.95235C12.0163 6.30474 12.142 6.71904 12.142 7.14286C12.142 7.71118 11.9163 8.25622 11.5144 8.65809C11.1125 9.05995 10.5675 9.28571 9.99916 9.28571Z" fill="black"/>
</svg>
