<svg width="16" height="16" viewBox="0 0 16 16" fill="none" xmlns="http://www.w3.org/2000/svg">
<path d="M4.04722 0.000723391L1.83474 2.37466L0.971332 1.44909L0 2.48818L1.34907 3.93438L1.83474 4.43042L2.3204 3.93366L5.01855 1.04126L4.04722 0V0.000723391ZM7.23103 1.24445V2.69065H16V1.24445H7.23103ZM4.04722 5.78551L1.83474 8.16017L0.971332 7.23171L0 8.27297L1.34907 9.71917L1.83474 10.2152L2.3204 9.71844L5.01855 6.82605L4.04722 5.78479V5.78551ZM7.23103 7.02924V8.47544H16V7.02924H7.23103ZM4.04722 11.5703L1.83474 13.9442L0.971332 13.0187L0 14.0578L1.34907 15.504L1.83474 16L2.3204 15.5032L5.01855 12.6108L4.04722 11.5696V11.5703ZM7.23103 12.814V14.2602H16V12.814H7.23103Z" fill="#4673E4"/>
</svg>
