<svg width="18" height="18" viewBox="0 0 18 18" fill="none" xmlns="http://www.w3.org/2000/svg">
<path d="M17 0H1C0.734784 0 0.48043 0.105357 0.292893 0.292893C0.105357 0.48043 0 0.734784 0 1V17C0 17.2652 0.105357 17.5196 0.292893 17.7071C0.48043 17.8946 0.734784 18 1 18H17C17.2652 18 17.5196 17.8946 17.7071 17.7071C17.8946 17.5196 18 17.2652 18 17V1C18 0.734784 17.8946 0.48043 17.7071 0.292893C17.5196 0.105357 17.2652 0 17 0ZM14.954 4.265L13.988 5.19C13.9472 5.22112 13.9157 5.26286 13.897 5.31065C13.8783 5.35844 13.8731 5.41045 13.882 5.461V12.262C13.8731 12.3125 13.8783 12.3646 13.897 12.4124C13.9157 12.4601 13.9472 12.5019 13.988 12.533L14.93 13.459V13.663H10.189V13.459L11.166 12.511C11.263 12.415 11.263 12.386 11.263 12.24V6.742L8.547 13.638H8.179L5.018 6.742V11.364C5.00552 11.46 5.01486 11.5577 5.04533 11.6496C5.07581 11.7415 5.12662 11.8254 5.194 11.895L6.465 13.436V13.639H2.861V13.436L4.132 11.895C4.1989 11.8254 4.24858 11.7412 4.27706 11.649C4.30553 11.5568 4.31202 11.4592 4.296 11.364V6.02C4.30348 5.94685 4.29361 5.87296 4.2672 5.80434C4.24079 5.73571 4.19859 5.67427 4.144 5.625L3.014 4.265V4.062H6.52L9.23 10.005L11.612 4.062H14.955V4.265H14.954Z" fill="black"/>
</svg>
