<svg width="23" height="23" viewBox="0 0 23 23" fill="none" xmlns="http://www.w3.org/2000/svg">
<path d="M11.5003 12.4583C12.0296 12.4583 12.4587 12.0293 12.4587 11.5C12.4587 10.9707 12.0296 10.5417 11.5003 10.5417C10.9711 10.5417 10.542 10.9707 10.542 11.5C10.542 12.0293 10.9711 12.4583 11.5003 12.4583Z" stroke="#777777" stroke-width="1.5" stroke-linecap="round" stroke-linejoin="round"/>
<path d="M18.2083 12.4583C18.7376 12.4583 19.1667 12.0293 19.1667 11.5C19.1667 10.9707 18.7376 10.5417 18.2083 10.5417C17.6791 10.5417 17.25 10.9707 17.25 11.5C17.25 12.0293 17.6791 12.4583 18.2083 12.4583Z" stroke="#777777" stroke-width="1.5" stroke-linecap="round" stroke-linejoin="round"/>
<path d="M4.79134 12.4583C5.32061 12.4583 5.74967 12.0293 5.74967 11.5C5.74967 10.9707 5.32061 10.5417 4.79134 10.5417C4.26207 10.5417 3.83301 10.9707 3.83301 11.5C3.83301 12.0293 4.26207 12.4583 4.79134 12.4583Z" stroke="#777777" stroke-width="1.5" stroke-linecap="round" stroke-linejoin="round"/>
</svg>
