<svg width="20" height="16" viewBox="0 0 20 16" fill="none" xmlns="http://www.w3.org/2000/svg">
<path d="M8.125 7.33333H1.25C0.918479 7.33333 0.600537 7.19286 0.366116 6.94281C0.131696 6.69276 0 6.35362 0 6V1.33333C0 0.979711 0.131696 0.640573 0.366116 0.390524C0.600537 0.140476 0.918479 0 1.25 0H8.125C8.45652 0 8.77446 0.140476 9.00888 0.390524C9.2433 0.640573 9.375 0.979711 9.375 1.33333V6C9.375 6.35362 9.2433 6.69276 9.00888 6.94281C8.77446 7.19286 8.45652 7.33333 8.125 7.33333ZM1.25 1.33333V6H8.125V1.33333H1.25Z" fill="#979D9F"/>
<path d="M18.75 7.33333H11.875C11.5435 7.33333 11.2255 7.19286 10.9911 6.94281C10.7567 6.69276 10.625 6.35362 10.625 6V1.33333C10.625 0.979711 10.7567 0.640573 10.9911 0.390524C11.2255 0.140476 11.5435 0 11.875 0H18.75C19.0815 0 19.3995 0.140476 19.6339 0.390524C19.8683 0.640573 20 0.979711 20 1.33333V6C20 6.35362 19.8683 6.69276 19.6339 6.94281C19.3995 7.19286 19.0815 7.33333 18.75 7.33333ZM11.875 1.33333V6H18.75V1.33333H11.875Z" fill="#979D9F"/>
<path d="M8.125 16H1.25C0.918479 16 0.600537 15.8595 0.366116 15.6095C0.131696 15.3594 0 15.0203 0 14.6667V10C0 9.64638 0.131696 9.30724 0.366116 9.0572C0.600537 8.80715 0.918479 8.66667 1.25 8.66667H8.125C8.45652 8.66667 8.77446 8.80715 9.00888 9.0572C9.2433 9.30724 9.375 9.64638 9.375 10V14.6667C9.375 15.0203 9.2433 15.3594 9.00888 15.6095C8.77446 15.8595 8.45652 16 8.125 16ZM1.25 10V14.6667H8.125V10H1.25Z" fill="#979D9F"/>
<path d="M18.75 16H11.875C11.5435 16 11.2255 15.8595 10.9911 15.6095C10.7567 15.3594 10.625 15.0203 10.625 14.6667V10C10.625 9.64638 10.7567 9.30724 10.9911 9.0572C11.2255 8.80715 11.5435 8.66667 11.875 8.66667H18.75C19.0815 8.66667 19.3995 8.80715 19.6339 9.0572C19.8683 9.30724 20 9.64638 20 10V14.6667C20 15.0203 19.8683 15.3594 19.6339 15.6095C19.3995 15.8595 19.0815 16 18.75 16ZM11.875 10V14.6667H18.75V10H11.875Z" fill="#979D9F"/>
</svg>
