<svg width="17" height="12" viewBox="0 0 17 12" fill="none" xmlns="http://www.w3.org/2000/svg">
<path fill-rule="evenodd" clip-rule="evenodd" d="M5.46037 0.251763C5.52632 0.331366 5.57865 0.425932 5.61435 0.530044C5.65006 0.634156 5.66844 0.745768 5.66844 0.858488C5.66844 0.971207 5.65006 1.08282 5.61435 1.18693C5.57865 1.29104 5.52632 1.38561 5.46037 1.46521L1.71095 6.00022L5.46037 10.5352C5.52621 10.6149 5.57845 10.7095 5.61409 10.8136C5.64972 10.9177 5.66807 11.0293 5.66807 11.142C5.66807 11.2546 5.64972 11.3662 5.61409 11.4703C5.57845 11.5744 5.52621 11.669 5.46037 11.7487C5.39452 11.8284 5.31634 11.8916 5.23031 11.9347C5.14427 11.9778 5.05206 12 4.95893 12C4.86581 12 4.77359 11.9778 4.68756 11.9347C4.60152 11.8916 4.52335 11.8284 4.4575 11.7487L0.208071 6.60695C0.142116 6.52735 0.0897872 6.43278 0.0540829 6.32867C0.0183786 6.22456 0 6.11294 0 6.00022C0 5.88751 0.0183786 5.77589 0.0540829 5.67178C0.0897872 5.56767 0.142116 5.4731 0.208071 5.3935L4.4575 0.251763C4.52329 0.171957 4.60144 0.10864 4.68749 0.0654386C4.77353 0.0222369 4.86577 0 4.95893 0C5.05209 0 5.14433 0.0222369 5.23038 0.0654386C5.31642 0.10864 5.39458 0.171957 5.46037 0.251763Z" fill="#93959A" fill-opacity="0.58"/>
<path fill-rule="evenodd" clip-rule="evenodd" d="M0.710938 6.00022C0.710938 5.77294 0.785555 5.55497 0.918376 5.39426C1.0512 5.23355 1.23134 5.14326 1.41918 5.14326H16.2922C16.48 5.14326 16.6602 5.23355 16.793 5.39426C16.9258 5.55497 17.0004 5.77294 17.0004 6.00022C17.0004 6.2275 16.9258 6.44547 16.793 6.60618C16.6602 6.76689 16.48 6.85718 16.2922 6.85718H1.41918C1.23134 6.85718 1.0512 6.76689 0.918376 6.60618C0.785555 6.44547 0.710938 6.2275 0.710938 6.00022Z" fill="#93959A" fill-opacity="0.58"/>
</svg>
