<svg height="512pt" viewBox="0 0 512 512" width="512pt" xmlns="http://www.w3.org/2000/svg"><path d="m328 180.015625v9.761719c-15.601562-20.320313-26.878906-24.722656-40-23.042969v-.078125l24-33.28125c10.078125 12.882812 16 29.121094 16 46.640625zm0 0" fill="#f6bb42"/><path d="m312 133.375-24 33.28125v.078125c-21.28125 2.722656-47.28125 21.363281-104 14.402344-2.640625-.320313-5.28125-.722657-8-1.121094 0-42 34-76 76-76 24.398438 0 46.160156 11.519531 60 29.359375zm0 0" fill="#ffce54"/><path d="m312 133.375-18.894531 26.210938c.636719 2.285156 1.261719 4.589843 1.6875 6.964843h.023437c4.800782.296875 9.511719 1.761719 14.429688 4.832031.570312.351563 1.144531.695313 1.730468 1.097657.800782.558593 1.617188 1.191406 2.429688 1.839843.785156.617188 1.570312 1.28125 2.371094 1.984376.71875.640624 1.445312 1.304687 2.175781 2.015624 1 .976563 2.03125 2.0625 3.0625 3.175782.601563.640625 1.183594 1.238281 1.800781 1.9375 1.6875 1.917968 3.40625 4 5.191406 6.328125v-9.761719c-.007812-17.503906-5.929687-33.742188-16.007812-46.625zm0 0" fill="#edab37"/><path d="m243.566406 104.503906c-2.605468.296875-5.167968.710938-7.695312 1.257813h-.007813c17.832031 3.796875 33.382813 13.757812 44.136719 27.605469 6.007812 7.679687 10.433594 16.585937 13.105469 26.207031l18.894531-26.199219c-13.839844-17.832031-35.601562-29.359375-60-29.359375-2.761719 0-5.488281.160156-8.167969.457031-.089843.007813-.175781.03125-.265625.03125zm0 0" fill="#f6bb42"/><path d="m256 312.015625-16 8-16-8v-31.519531c9.601562 4.808594 20.558594 7.519531 32 7.519531s22.398438-2.71875 32-7.519531v31.519531l-16 8zm0 0" fill="#f5f7fa"/><path d="m328 189.777344v26.238281c0 28.242187-16.320312 52.71875-40 64.480469-9.601562 4.808594-20.558594 7.519531-32 7.519531s-22.398438-2.71875-32-7.519531c-23.679688-11.761719-40-36.230469-40-64.480469v-34.878906c56.71875 6.960937 82.71875-11.679688 104-14.402344 13.121094-1.679687 24.398438 2.722656 40 23.042969zm0 0" fill="#eac6bb"/><path d="m296 166.648438v49.367187c0 28.242187-16.320312 52.71875-40 64.480469-5 2.503906-10.382812 4.40625-16 5.6875 5.167969 1.175781 10.519531 1.832031 16 1.832031 11.441406 0 22.398438-2.71875 32-7.519531 23.679688-11.761719 40-36.230469 40-64.480469v-26.238281c-12.351562-16.097656-22.007812-22.121094-32-23.128906zm0 0" fill="#d3b1a9"/><path d="m344 352.015625v24c0 4.398437-3.601562 8-8 8h-160c-4.398438 0-8-3.601563-8-8v-24c0-22.078125 17.921875-40 40-40h16l16 8 16-8 16 8 16-8h16c22.160156 0 40 17.921875 40 40zm0 0" fill="#e6e9ed"/><path d="m304 312.015625h-16l-4.039062 2.015625c16.238281 5.113281 28.039062 20.097656 28.039062 37.984375v24c0 4.398437-3.601562 8-8 8h32c4.398438 0 8-3.601563 8-8v-24c0-22.078125-17.839844-40-40-40zm0 0" fill="#ccd1d9"/><g fill="#e6e9ed"><path d="m279.960938 486.734375c-4.039063 0-7.503907-3.046875-7.945313-7.160156-.472656-4.390625 2.710937-8.328125 7.113281-8.796875 38.503906-4.097656 75.253906-18.5625 106.3125-41.839844 3.527344-2.640625 8.542969-1.9375 11.191406 1.605469 2.65625 3.527343 1.933594 8.546875-1.601562 11.183593-33.351562 25.015626-72.847656 40.5625-114.214844 44.953126-.289062.039062-.578125.054687-.855468.054687zm0 0"/><path d="m435.335938 398.199219c-1.671876 0-3.351563-.511719-4.792969-1.589844-3.535157-2.65625-4.253907-7.671875-1.597657-11.203125 23.261719-31.03125 37.734376-67.796875 41.832032-106.292969.46875-4.394531 4.46875-7.625 8.796875-7.113281 4.402343.472656 7.578125 4.40625 7.113281 8.800781-4.40625 41.375-19.945312 80.871094-44.945312 114.199219-1.574219 2.113281-3.964844 3.199219-6.40625 3.199219zm0 0"/><path d="m478.726562 240.046875c-4.039062 0-7.503906-3.046875-7.941406-7.160156-4.234375-39.832031-19.511718-77.65625-44.183594-109.367188-2.714843-3.488281-2.089843-8.511719 1.398438-11.222656 3.503906-2.710937 8.519531-2.082031 11.222656 1.398437 26.503906 34.074219 42.921875 74.695313 47.472656 117.503907.472657 4.394531-2.710937 8.335937-7.109374 8.808593-.296876.023438-.578126.039063-.859376.039063zm0 0"/><path d="m393.398438 87.089844c-1.710938 0-3.445313-.546875-4.902344-1.683594-31.710938-24.664062-69.527344-39.941406-109.367188-44.183594-4.402344-.460937-7.578125-4.40625-7.113281-8.796875.472656-4.402343 4.449219-7.617187 8.800781-7.113281 42.808594 4.550781 83.441406 20.96875 117.503906 47.464844 3.488282 2.710937 4.121094 7.734375 1.398438 11.222656-1.574219 2.023438-3.933594 3.089844-6.320312 3.089844zm0 0"/><path d="m121.792969 84.648438c-2.441407 0-4.832031-1.105469-6.410157-3.199219-2.65625-3.527344-1.933593-8.546875 1.601563-11.191407 33.367187-25.011718 72.863281-40.546874 114.230469-44.9375 4.488281-.410156 8.335937 2.726563 8.800781 7.113282.472656 4.398437-2.71875 8.335937-7.113281 8.804687-38.503906 4.082031-75.261719 18.546875-106.328125 41.832031-1.429688 1.066407-3.117188 1.578126-4.78125 1.578126zm0 0"/><path d="m33.273438 240.03125c-.28125 0-.570313-.015625-.847657-.046875-4.402343-.464844-7.578125-4.410156-7.113281-8.800781 4.40625-41.382813 19.953125-80.886719 44.960938-114.230469 2.648437-3.527344 7.664062-4.257813 11.191406-1.601563 3.535156 2.648438 4.253906 7.664063 1.597656 11.199219-23.277344 31.042969-37.75 67.808594-41.847656 106.328125-.429688 4.105469-3.902344 7.152344-7.941406 7.152344zm0 0"/><path d="m76.761719 398.359375c-2.433594 0-4.832031-1.113281-6.410157-3.199219-25.0625-33.375-40.632812-72.921875-45.039062-114.359375-.472656-4.394531 2.710938-8.328125 7.113281-8.800781 4.367188-.472656 8.328125 2.71875 8.796875 7.113281 4.105469 38.558594 18.601563 75.359375 41.929688 106.4375 2.648437 3.546875 1.9375 8.546875-1.59375 11.203125-1.445313 1.078125-3.125 1.605469-4.796875 1.605469zm0 0"/><path d="m232.054688 486.734375c-.277344 0-.566407-.015625-.847657-.046875-41.390625-4.40625-80.886719-19.933594-114.230469-44.953125-3.535156-2.636719-4.257812-7.65625-1.601562-11.183594 2.648438-3.542969 7.671875-4.246093 11.191406-1.605469 31.042969 23.277344 67.808594 37.75 106.328125 41.839844 4.402344.472656 7.578125 4.40625 7.113281 8.800782-.449218 4.101562-3.910156 7.148437-7.953124 7.148437zm0 0"/></g><path d="m97.625 137.601562c-10.6875 0-20.738281-4.160156-28.28125-11.714843-7.550781-7.550781-11.71875-17.597657-11.726562-28.277344-.007813-10.6875 4.160156-20.730469 11.710937-28.28125s17.601563-11.71875 28.289063-11.71875 20.734374 4.167969 28.285156 11.71875c7.554687 7.542969 11.722656 17.59375 11.722656 28.273437 0 10.6875-4.167969 20.734376-11.722656 28.285157-7.550782 7.554687-17.597656 11.714843-28.277344 11.714843zm0 0" fill="#ed5565"/><path d="m414.40625 454.390625c-10.679688 0-20.726562-4.160156-28.277344-11.71875-15.59375-15.59375-15.59375-40.96875 0-56.558594 7.550782-7.546875 17.597656-11.722656 28.285156-11.722656 10.675782 0 20.722657 4.160156 28.273438 11.722656 15.59375 15.589844 15.59375 40.964844 0 56.558594-7.550781 7.558594-17.597656 11.71875-28.28125 11.71875zm0 0" fill="#ed5565"/><path d="m97.585938 454.390625c-10.683594 0-20.722657-4.160156-28.265626-11.71875-15.585937-15.59375-15.585937-40.96875.007813-56.558594 7.535156-7.546875 17.582031-11.722656 28.273437-11.722656 10.6875 0 20.726563 4.160156 28.285157 11.722656 7.554687 7.542969 11.722656 17.589844 11.722656 28.277344s-4.167969 20.722656-11.722656 28.28125c-7.566407 7.542969-17.613281 11.71875-28.300781 11.71875zm0 0" fill="#ed5565"/><path d="m414.398438 133.601562c-9.605469 0-18.65625-3.746093-25.460938-10.539062-6.808594-6.804688-10.546875-15.839844-10.546875-25.460938 0-9.625 3.746094-18.65625 10.546875-25.457031 6.796875-6.800781 15.847656-10.542969 25.453125-10.542969 9.617187 0 18.648437 3.742188 25.457031 10.535157 6.808594 6.808593 10.542969 15.839843 10.542969 25.464843 0 9.621094-3.742187 18.664063-10.542969 25.460938-6.800781 6.792969-15.832031 10.539062-25.449218 10.539062zm0 0" fill="#ed5565"/><path d="m256.015625 64c-17.648437 0-32-14.351562-32-32 0-17.640625 14.351563-32 32-32s32 14.359375 32 32c0 17.648438-14.351563 32-32 32zm0 0" fill="#ac92ec"/><path d="m256.015625 512c-17.648437 0-32-14.34375-32-32 0-17.640625 14.351563-32 32-32s32 14.359375 32 32c0 17.65625-14.351563 32-32 32zm0 0" fill="#ac92ec"/><path d="m32.03125 287.984375c-17.664062 0-32.03125-14.34375-32.03125-31.984375s14.351562-32 32-32c8.550781 0 16.59375 3.328125 22.632812 9.375 6.039063 6.039062 9.367188 14.082031 9.367188 22.625 0 17.640625-14.34375 31.984375-31.96875 31.984375zm0 0" fill="#ac92ec"/><path d="m480 288c-17.632812 0-31.984375-14.359375-31.984375-32s14.351563-32 31.984375-32c17.648438 0 32 14.351562 32 32 0 17.640625-14.351562 32-32 32zm0 0" fill="#ac92ec"/></svg>